<svg width="20" height="20" viewBox="0 0 20 20" fill="none" xmlns="http://www.w3.org/2000/svg">
<path fill-rule="evenodd" clip-rule="evenodd" d="M3.33334 10.0002C3.33334 13.6821 6.31811 16.6668 10 16.6668C13.6819 16.6668 16.6667 13.6821 16.6667 10.0002C16.6667 6.31826 13.6819 3.3335 10 3.3335C6.31811 3.3335 3.33334 6.31826 3.33334 10.0002ZM10.0352 5.92609H9.97262C9.77909 5.92609 9.61818 6.0751 9.60334 6.26806L9.28275 10.4357C9.26912 10.6128 9.38319 10.7747 9.55458 10.8214L12.976 11.7546C13.0003 11.7612 13.0253 11.7645 13.0505 11.7645C13.2067 11.7645 13.3333 11.6379 13.3333 11.4816V11.3262C13.3333 11.1933 13.2621 11.0706 13.1467 11.0046L10.7408 9.6298L10.4037 6.25961C10.3848 6.07028 10.2255 5.92609 10.0352 5.92609Z" fill="#010F07"/>
</svg>
