<svg width="20" height="20" viewBox="0 0 20 20" fill="none" xmlns="http://www.w3.org/2000/svg">
<path fill-rule="evenodd" clip-rule="evenodd" d="M18.3333 9.99984C18.3333 14.6022 14.6024 18.3332 9.99999 18.3332C5.39762 18.3332 1.66666 14.6022 1.66666 9.99984C1.66666 5.39746 5.39762 1.6665 9.99999 1.6665C14.6024 1.6665 18.3333 5.39746 18.3333 9.99984ZM10.051 3.74984C9.67788 3.74984 9.3754 4.05231 9.3754 4.42543V5.32196C9.32467 5.33302 9.274 5.34483 9.2234 5.3574C8.80407 5.46157 8.42755 5.62615 8.0938 5.85115C7.76006 6.07615 7.4905 6.36365 7.28511 6.71365C7.07973 7.06365 6.97704 7.48448 6.97704 7.97615C6.97704 8.37615 7.04336 8.71573 7.176 8.9949C7.30865 9.27407 7.48407 9.51157 7.70229 9.7074C7.92051 9.90324 8.16868 10.0637 8.4468 10.1887C8.72492 10.3137 9.00946 10.422 9.30041 10.5137C9.59993 10.6053 9.86735 10.6907 10.1027 10.7699C10.338 10.8491 10.5348 10.9366 10.6932 11.0324C10.8515 11.1282 10.9734 11.2345 11.059 11.3512C11.1446 11.4678 11.1874 11.6095 11.1874 11.7762C11.1874 11.9512 11.1531 12.1012 11.0847 12.2262C11.0162 12.3512 10.9242 12.4512 10.8087 12.5262C10.6932 12.6012 10.5584 12.6553 10.4043 12.6887C10.2503 12.722 10.092 12.7387 9.92939 12.7387C9.56997 12.7387 9.20842 12.6491 8.84472 12.4699C8.48103 12.2907 8.18793 12.0678 7.96544 11.8012L6.52777 13.2262C6.92998 13.6345 7.43487 13.9491 8.04246 14.1699C8.47589 14.3274 8.9202 14.4288 9.3754 14.4739V15.5742C9.3754 15.9474 9.67788 16.2498 10.051 16.2498C10.4241 16.2498 10.7266 15.9474 10.7266 15.5742V14.4365C10.895 14.4087 11.0614 14.3719 11.2259 14.3262C11.6452 14.2095 12.0174 14.0303 12.3426 13.7887C12.6678 13.547 12.9267 13.2407 13.1192 12.8699C13.3118 12.4991 13.408 12.0595 13.408 11.5512C13.408 11.1095 13.3182 10.7407 13.1385 10.4449C12.9588 10.1491 12.732 9.90115 12.4581 9.70115C12.1843 9.50115 11.8805 9.34074 11.5468 9.2199C11.213 9.09907 10.8921 8.98865 10.584 8.88865C10.3701 8.82199 10.1776 8.7574 10.0064 8.6949C9.83526 8.6324 9.68764 8.56365 9.56356 8.48865C9.43947 8.41365 9.34534 8.32615 9.28116 8.22615C9.21698 8.12615 9.18489 8.00115 9.18489 7.85115C9.18489 7.67615 9.22554 7.5324 9.30683 7.4199C9.38813 7.3074 9.48868 7.21574 9.60849 7.1449C9.72829 7.07407 9.86307 7.02615 10.0128 7.00115C10.1626 6.97615 10.3102 6.96365 10.4557 6.96365C10.7381 6.96365 11.0312 7.0324 11.335 7.1699C11.6388 7.3074 11.8848 7.49282 12.0731 7.72615L13.4722 6.28865C13.07 5.93032 12.6015 5.65949 12.0666 5.47615C11.6122 5.32039 11.1656 5.2308 10.7266 5.20737V4.42543C10.7266 4.05231 10.4241 3.74984 10.051 3.74984Z" fill="#868686"/>
</svg>
