<svg width="20" height="20" viewBox="0 0 20 20" fill="none" xmlns="http://www.w3.org/2000/svg">
<path fill-rule="evenodd" clip-rule="evenodd" d="M10 14.1666L7.16362 15.6578C6.82415 15.8363 6.40427 15.7058 6.2258 15.3663C6.15473 15.2311 6.1302 15.0763 6.15602 14.9257L6.69772 11.7674L4.40304 9.53064C4.1284 9.26293 4.12278 8.82327 4.39049 8.54863C4.49709 8.43927 4.63678 8.36809 4.78791 8.34613L7.95908 7.88534L9.37727 5.01177C9.547 4.66785 9.96341 4.52664 10.3073 4.69638C10.4443 4.76397 10.5551 4.87482 10.6227 5.01177L12.0409 7.88534L15.2121 8.34613C15.5916 8.40128 15.8546 8.75367 15.7995 9.13322C15.7775 9.28436 15.7063 9.42404 15.597 9.53064L13.3023 11.7674L13.844 14.9257C13.9088 15.3038 13.6549 15.6628 13.2769 15.7276C13.1264 15.7534 12.9716 15.7289 12.8364 15.6578L10 14.1666Z" fill="#22A45D"/>
</svg>
